<?xml version="1.0" encoding="utf-8"?>
<!-- Uploaded to: SVG Repo, www.svgrepo.com, Generator: SVG Repo Mixer Tools -->
<svg fill="#000000" version="1.1" id="Layer_1" xmlns="http://www.w3.org/2000/svg" xmlns:xlink="http://www.w3.org/1999/xlink" 
	 width="800px" height="800px" viewBox="0 0 208 256" enable-background="new 0 0 208 256" xml:space="preserve">
<path d="M35.8,2C17.53,2,2,16.72,2,35c0,0,0,184.49,0,186c0,17.87,14.42,32.19,32.08,32.9v0.1h171.74v-9.29
	c-13.23,0-23.93-10.7-23.93-23.93c0-13.22,10.7-23.92,23.93-23.92V2H35.8z M49,53.03c0-3.29,2.72-6.03,5.99-6.03h103.97
	c3.27,0,5.99,2.69,6.04,6.03v69.29c0,3.29-2.72,6.03-5.99,6.03H121.4v10.11h9.59c1.66,0,3.04,1.39,3.04,3.06v0.42
	c0,1.67-1.38,3.06-3.04,3.06H83.01c-1.66,0-3.04-1.39-3.04-3.06v-0.42c0-1.67,1.38-3.06,3.04-3.06h9.59v-10.11H54.99
	c-3.27,0-5.99-2.74-5.99-6.03V53.03z M172.6,220.68c0,9.39,4.04,17.87,10.3,23.93H35.4c-13.23,0.1-24.03-10.7-24.03-23.93
	c0-12.52,9.79-22.81,22.11-23.72l149.72-0.31C176.74,202.71,172.6,211.19,172.6,220.68z M157.63,54.51H56.65v60.53h100.98V54.51z
	 M106.98,117.73c-1.89,0-3.46,1.53-3.46,3.48c0,1.99,1.52,3.57,3.46,3.48c1.89,0,3.45-1.53,3.45-3.48
	C110.43,119.31,108.91,117.73,106.98,117.73z"/>
</svg>